<mxfile host="Electron" modified="2024-05-20T14:30:02.969Z" agent="Mozilla/5.0 (Macintosh; Intel Mac OS X 10_15_7) AppleWebKit/537.36 (KHTML, like Gecko) draw.io/21.2.8 Chrome/112.0.5615.165 Electron/24.2.0 Safari/537.36" etag="8sdPBl79S8bd1XqaqjQB" version="21.2.8" type="device">
  <diagram name="Page-1" id="xlzOW240HNQxo9FXsOTP">
    <mxGraphModel dx="954" dy="604" grid="1" gridSize="10" guides="1" tooltips="1" connect="1" arrows="1" fold="1" page="1" pageScale="1" pageWidth="827" pageHeight="1169" math="1" shadow="0">
      <root>
        <mxCell id="0" />
        <mxCell id="1" parent="0" />
        <mxCell id="XXmutrHDOnngH18tbNGO-2" value="" style="ellipse;shape=cloud;whiteSpace=wrap;html=1;fillColor=#f5f5f5;fontColor=#333333;strokeColor=#666666;strokeWidth=2;" parent="1" vertex="1">
          <mxGeometry x="140" y="240" width="530" height="240" as="geometry" />
        </mxCell>
        <mxCell id="XXmutrHDOnngH18tbNGO-5" value="&lt;font style=&quot;font-size: 14px;&quot;&gt;`Y`&lt;/font&gt;" style="text;html=1;strokeColor=none;fillColor=none;align=center;verticalAlign=middle;whiteSpace=wrap;rounded=0;" parent="1" vertex="1">
          <mxGeometry x="384" y="280" width="60" height="30" as="geometry" />
        </mxCell>
        <mxCell id="SpzRePAwpA51yEDYF4Kv-1" value="" style="rounded=0;whiteSpace=wrap;html=1;fillColor=#e1d5e7;strokeColor=#9673a6;strokeWidth=2;" parent="1" vertex="1">
          <mxGeometry x="254" y="320" width="320" height="80" as="geometry" />
        </mxCell>
        <mxCell id="XXmutrHDOnngH18tbNGO-6" value="&lt;font style=&quot;font-size: 14px;&quot;&gt;`\Lambda`&lt;/font&gt;" style="text;html=1;strokeColor=none;fillColor=none;align=center;verticalAlign=middle;whiteSpace=wrap;rounded=0;" parent="1" vertex="1">
          <mxGeometry x="384" y="345" width="60" height="30" as="geometry" />
        </mxCell>
      </root>
    </mxGraphModel>
  </diagram>
</mxfile>
